<?xml version="1.0" encoding="utf-8"?>
<svg version="1.0" xmlns="http://www.w3.org/2000/svg" width="207.836256pt" height="205.278760pt" viewBox="0 0 207.836256 205.278760" preserveAspectRatio="xMidYMid meet">
  <g transform="translate(-154.163744,350.022115) scale(0.100000,-0.100000)" fill="#000000" stroke="none">
    <path d="M1544 3485 c-2 -5 -3 -466 -2 -1023 l3 -1013 180 0 c99 0 187 0 196 0 9 1 88 89 175 197 88 108 188 231 224 275 36 43 92 111 125 151 311 378 389 468 395 461 4 -4 42 -84 85 -178 42 -93 126 -273 185 -400 114 -242 140 -302 140 -316 0 -5 -126 -9 -280 -9 -231 0 -280 2 -280 14 0 17 113 273 170 383 l42 83 -20 32 c-11 18 -34 61 -52 96 -17 34 -35 62 -40 62 -12 0 -32 -39 -166 -326 -163 -349 -234 -507 -234 -518 0 -8 178 -10 577 -8 318 2 580 5 582 8 4 4 -23 67 -106 244 -30 63 -62 131 -70 150 -9 19 -45 96 -81 170 -71 150 -225 483 -279 603 -39 88 -42 71 38 168 33 40 250 306 482 591 48 59 87 110 87 113 0 9 -909 5 -914 -4 -4 -5 11 -45 31 -88 l38 -78 223 -3 c125 -1 222 -6 222 -12 0 -5 -50 -69 -112 -142 -61 -73 -138 -166 -171 -205 l-59 -72 -105 227 c-58 125 -116 256 -130 292 -13 36 -29 71 -35 78 -12 13 -184 17 -205 4 -6 -4 -36 -64 -66 -132 -30 -69 -64 -145 -75 -170 -162 -351 -202 -435 -209 -437 -4 -1 -28 46 -52 105 -25 59 -86 197 -136 307 -51 110 -102 228 -115 262 -20 56 -26 63 -54 67 -50 8 -148 2 -152 -9z m1012 -350 c61 -134 148 -331 167 -377 l15 -37 -121 -144 c-67 -79 -161 -191 -209 -248 -47 -57 -173 -207 -279 -334 -106 -126 -218 -262 -250 -302 -94 -118 -133 -163 -141 -163 -10 0 -10 1387 0 1394 8 5 28 -35 136 -271 76 -164 77 -138 -13 -324 l-51 -107 2 -208 3 -209 69 135 c98 191 352 728 466 985 32 72 74 164 93 205 19 41 38 83 41 93 11 33 26 14 72 -88z" style="fill: rgb(229, 9, 20);"/>
  </g>
</svg>